<svg xmlns="http://www.w3.org/2000/svg" viewBox="0 0 320 200" width="320" height="200"><rect width="320" height="200" rx="18" fill="#F1F8EE"/><rect x="92" y="46" width="26" height="118" rx="7" fill="#5E9E4F"/><rect x="88" y="76" width="34" height="7" rx="3.5" fill="#3C6E33"/><rect x="88" y="106" width="34" height="7" rx="3.5" fill="#3C6E33"/><rect x="88" y="136" width="34" height="7" rx="3.5" fill="#3C6E33"/><rect x="152" y="46" width="26" height="118" rx="7" fill="#75B862"/><rect x="148" y="76" width="34" height="7" rx="3.5" fill="#3C6E33"/><rect x="148" y="106" width="34" height="7" rx="3.5" fill="#3C6E33"/><rect x="148" y="136" width="34" height="7" rx="3.5" fill="#3C6E33"/><rect x="212" y="46" width="26" height="118" rx="7" fill="#4E8A42"/><rect x="208" y="76" width="34" height="7" rx="3.5" fill="#3C6E33"/><rect x="208" y="106" width="34" height="7" rx="3.5" fill="#3C6E33"/><rect x="208" y="136" width="34" height="7" rx="3.5" fill="#3C6E33"/><path d="M92 60 C62 44 46 52 40 66 C58 76 78 72 92 60Z" fill="#7CC268"/><path d="M238 60 C268 44 284 52 290 66 C272 76 252 72 238 60Z" fill="#7CC268"/><rect x="34" y="168" width="252" height="8" rx="4" fill="#D8C7A6"/></svg>